<svg data-name="인스타" xmlns="http://www.w3.org/2000/svg" viewbox="0 0 19.3 19.94"><path d="M13.36 0H5.95A6 6 0 0 0 0 6.14v7.65a6 6 0 0 0 5.95 6.14h7.41a6 6 0 0 0 5.95-6.14V6.14A6 6 0 0 0 13.36 0zm4.09 13.06a4.89 4.89 0 0 1-4.8 5h-6a4.88 4.88 0 0 1-4.8-5V6.88a4.89 4.89 0 0 1 4.8-5h6a4.89 4.89 0 0 1 4.8 5zM9.91 4.75A5.25 5.25 0 1 0 14.99 10a5.17 5.17 0 0 0-5.08-5.25zm0 8.41A3.16 3.16 0 1 1 12.97 10a3.11 3.11 0 0 1-3.06 3.17zm4.73-9.83a1.34 1.34 0 1 0 1.29 1.34 1.32 1.32 0 0 0-1.29-1.34z" fill="#ffffff"/></svg>